name analog
datacolumns 19
datarows 40
range 0.18 0.1995
endheader
time	ground_force_vx	ground_force_vy	ground_force_vz	ground_force_px	ground_force_py	ground_force_pz	l_ground_force_vx	l_ground_force_vy	l_ground_force_vz	l_ground_force_px	l_ground_force_py	l_ground_force_pz	ground_torque_x	ground_torque_y	ground_torque_z	l_ground_torque_x	l_ground_torque_y	l_ground_torque_z
0.18	-0.0	-0.0	-0.0	-0.0	-0.0	-0.0	-3.226055145263672	2.473007202148437	-637.7808227539062	-0.0	-0.0	-0.0	-0.0	-0.0	-0.0	183403.328125	-131.310791015625	-1296.75390625
0.1805	-0.0	-0.0	-0.0	-0.0	-0.0	-0.0	-2.4839019775390625	2.238267183303833	-639.5355834960938	-0.0	-0.0	-0.0	-0.0	-0.0	-0.0	182738.21875	-1100.0870361328125	-1059.742431640625
0.181	-0.0	-0.0	-0.0	-0.0	-0.0	-0.0	-2.189929962158203	1.327409744262695	-640.922607421875	-0.0	-0.0	-0.0	-0.0	-0.0	-0.0	182651.9375	-1683.5084228515625	-920.8056030273438
0.1815	-0.0	-0.0	-0.0	-0.0	-0.0	-0.0	-1.7160115242004397	-0.0303727723658084	-640.6932373046875	-0.0	-0.0	-0.0	-0.0	-0.0	-0.0	182070.546875	-2393.548828125	-763.2313232421875
0.182	-0.0	-0.0	-0.0	-0.0	-0.0	-0.0	-1.8293019533157349	-1.288320779800415	-640.4644775390625	-0.0	-0.0	-0.0	-0.0	-0.0	-0.0	181482.03125	-2985.479736328125	-842.4483642578125
0.1825	-0.0	-0.0	-0.0	-0.0	-0.0	-0.0	-2.040348052978516	-2.20804214477539	-641.5248413085938	-0.0	-0.0	-0.0	-0.0	-0.0	-0.0	181244.46875	-3518.478515625	-675.1175537109375
0.183	-0.0	-0.0	-0.0	-0.0	-0.0	-0.0	-2.640942335128784	-3.767248392105103	-642.43896484375	-0.0	-0.0	-0.0	-0.0	-0.0	-0.0	180917.46875	-4072.79345703125	-992.0206298828124
0.1835	-0.0	-0.0	-0.0	-0.0	-0.0	-0.0	-3.274943590164185	-5.06499719619751	-643.258544921875	-0.0	-0.0	-0.0	-0.0	-0.0	-0.0	180430.765625	-4557.5478515625	-1031.55908203125
0.184	-0.0	-0.0	-0.0	-0.0	-0.0	-0.0	-3.548431396484375	-5.948277473449707	-643.5926513671875	-0.0	-0.0	-0.0	-0.0	-0.0	-0.0	180089.234375	-5167.06005859375	-1191.8897705078125
0.1845	-0.0	-0.0	-0.0	-0.0	-0.0	-0.0	-3.787700891494751	-6.71649169921875	-644.06298828125	-0.0	-0.0	-0.0	-0.0	-0.0	-0.0	179864.9375	-5243.458984375	-1210.28466796875
0.185	-0.0	-0.0	-0.0	-0.0	-0.0	-0.0	-4.413124084472656	-7.176373481750488	-646.8221435546875	-0.0	-0.0	-0.0	-0.0	-0.0	-0.0	179829.34375	-5795.31201171875	-1301.2481689453125
0.1855	-0.0	-0.0	-0.0	-0.0	-0.0	-0.0	-4.617466926574707	-7.825207710266113	-648.9505615234375	-0.0	-0.0	-0.0	-0.0	-0.0	-0.0	179774.265625	-6239.3291015625	-1553.6715087890625
0.186	-0.0	-0.0	-0.0	-0.0	-0.0	-0.0	-5.500068664550781	-8.213916778564453	-649.2327270507812	-0.0	-0.0	-0.0	-0.0	-0.0	-0.0	179479.734375	-6555.490234375	-1627.10400390625
0.1865	-0.0	-0.0	-0.0	-0.0	-0.0	-0.0	-5.035159111022949	-8.182840347290039	-649.5642700195312	-0.0	-0.0	-0.0	-0.0	-0.0	-0.0	179665.6875	-6672.8916015625	-1729.4698486328125
0.187	-0.0	-0.0	-0.0	-0.0	-0.0	-0.0	-5.212934494018555	-8.354294776916504	-649.894287109375	-0.0	-0.0	-0.0	-0.0	-0.0	-0.0	179143.375	-7220.19189453125	-1796.133056640625
0.1875	-0.0	-0.0	-0.0	-0.0	-0.0	-0.0	-4.738405704498291	-9.180106163024902	-650.0391235351562	-0.0	-0.0	-0.0	-0.0	-0.0	-0.0	178754.125	-7481.2529296875	-1897.306640625
0.188	-0.0	-0.0	-0.0	-0.0	-0.0	-0.0	-4.784818649291992	-9.834994316101074	-649.4000854492188	-0.0	-0.0	-0.0	-0.0	-0.0	-0.0	178118.765625	-7268.12744140625	-1914.9078369140625
0.1885	-0.0	-0.0	-0.0	-0.0	-0.0	-0.0	-5.645994663238525	-10.56724452972412	-648.3972778320312	-0.0	-0.0	-0.0	-0.0	-0.0	-0.0	177758.5625	-6998.75146484375	-2299.43115234375
0.189	-0.0	-0.0	-0.0	-0.0	-0.0	-0.0	-6.450322151184082	-10.365071296691896	-646.20263671875	-0.0	-0.0	-0.0	-0.0	-0.0	-0.0	177264.96875	-6890.22607421875	-2653.85986328125
0.1895	-0.0	-0.0	-0.0	-0.0	-0.0	-0.0	-7.185573577880859	-9.336772918701172	-642.36328125	-0.0	-0.0	-0.0	-0.0	-0.0	-0.0	176597.703125	-6786.8876953125	-3003.550048828125
0.19	-0.0	-0.0	-0.0	-0.0	-0.0	-0.0	-7.261865139007568	-8.23908805847168	-641.0170288085938	-0.0	-0.0	-0.0	-0.0	-0.0	-0.0	175710.875	-6695.85009765625	-3073.25830078125
0.1905	-0.0	-0.0	-0.0	-0.0	-0.0	-0.0	-7.629127502441406	-7.009052276611328	-636.9047241210938	-0.0	-0.0	-0.0	-0.0	-0.0	-0.0	174998.71875	-6256.16845703125	-3392.888427734375
0.191	-0.0	-0.0	-0.0	-0.0	-0.0	-0.0	-7.522241592407227	-5.8994574546813965	-633.5402221679688	-0.0	-0.0	-0.0	-0.0	-0.0	-0.0	174605.046875	-6060.3330078125	-3606.84716796875
0.1915	-0.0	-0.0	-0.0	-0.0	-0.0	-0.0	-7.895259857177734	-4.698760509490967	-632.7605590820312	-0.0	-0.0	-0.0	-0.0	-0.0	-0.0	174316.46875	-6109.37744140625	-3979.426025390625
0.192	-0.0	-0.0	-0.0	-0.0	-0.0	-0.0	-8.60494613647461	-3.557487964630127	-631.0142822265625	-0.0	-0.0	-0.0	-0.0	-0.0	-0.0	174360.421875	-5979.2236328125	-4267.9482421875
0.1925	-0.0	-0.0	-0.0	-0.0	-0.0	-0.0	-8.402936935424805	-2.144200563430786	-629.6171264648438	-0.0	-0.0	-0.0	-0.0	-0.0	-0.0	174149.3125	-5910.28271484375	-4521.177734375
0.193	-0.0	-0.0	-0.0	-0.0	-0.0	-0.0	-8.282241821289062	-1.2608299255371094	-629.0447387695312	-0.0	-0.0	-0.0	-0.0	-0.0	-0.0	174208.21875	-6062.29931640625	-4447.64599609375
0.1935	-0.0	-0.0	-0.0	-0.0	-0.0	-0.0	-7.8630571365356445	-1.0840590000152588	-628.7264404296875	-0.0	-0.0	-0.0	-0.0	-0.0	-0.0	174570.359375	-6293.13330078125	-4406.91357421875
0.194	-0.0	-0.0	-0.0	-0.0	-0.0	-0.0	-7.306564331054687	-0.8751234412193298	-627.7435913085938	-0.0	-0.0	-0.0	-0.0	-0.0	-0.0	174870.15625	-6183.4736328125	-4306.705078125
0.1945	-0.0	-0.0	-0.0	-0.0	-0.0	-0.0	-6.887090682983398	-0.5060256719589233	-628.7276000976562	-0.0	-0.0	-0.0	-0.0	-0.0	-0.0	175156.546875	-6519.4755859375	-4268.62060546875
0.195	-0.0	-0.0	-0.0	-0.0	-0.0	-0.0	-6.475887298583984	-0.0322721488773822	-627.9357299804688	-0.0	-0.0	-0.0	-0.0	-0.0	-0.0	175261.8125	-6607.60498046875	-4316.7392578125
0.1955	-0.0	-0.0	-0.0	-0.0	-0.0	-0.0	-6.354684829711914	0.4888554811477661	-628.5074462890625	-0.0	-0.0	-0.0	-0.0	-0.0	-0.0	175545.828125	-6807.8212890625	-4257.2177734375
0.196	-0.0	-0.0	-0.0	-0.0	-0.0	-0.0	-5.91106653213501	1.0979331731796265	-627.646484375	-0.0	-0.0	-0.0	-0.0	-0.0	-0.0	175678.765625	-7074.45458984375	-4192.544921875
0.1965	-0.0	-0.0	-0.0	-0.0	-0.0	-0.0	-4.911719799041748	1.5573066473007202	-627.3331298828125	-0.0	-0.0	-0.0	-0.0	-0.0	-0.0	175840.453125	-7209.26708984375	-4059.2275390625
0.197	-0.0	-0.0	-0.0	-0.0	-0.0	-0.0	-5.037712097167969	1.8966760635375977	-628.0867309570312	-0.0	-0.0	-0.0	-0.0	-0.0	-0.0	176218.5	-7427.28564453125	-4067.07421875
0.1975	-0.0	-0.0	-0.0	-0.0	-0.0	-0.0	-4.533843040466309	2.5748512744903564	-627.6456298828125	-0.0	-0.0	-0.0	-0.0	-0.0	-0.0	176180.84375	-7625.89208984375	-4044.629638671875
0.198	-0.0	-0.0	-0.0	-0.0	-0.0	-0.0	-4.589940547943115	3.0716958045959477	-626.2354736328125	-0.0	-0.0	-0.0	-0.0	-0.0	-0.0	176186.78125	-7540.78515625	-4025.810791015625
0.1985	-0.0	-0.0	-0.0	-0.0	-0.0	-0.0	-4.346828460693359	3.376167297363281	-626.1583862304688	-0.0	-0.0	-0.0	-0.0	-0.0	-0.0	176250.78125	-7861.3828125	-4014.534423828125
0.199	-0.0	-0.0	-0.0	-0.0	-0.0	-0.0	-3.9817569255828857	3.951824426651001	-625.8989868164062	-0.0	-0.0	-0.0	-0.0	-0.0	-0.0	176467.875	-7739.9306640625	-3980.229736328125
0.1995	-0.0	-0.0	-0.0	-0.0	-0.0	-0.0	-4.047638893127441	4.270684242248535	-626.8572387695312	-0.0	-0.0	-0.0	-0.0	-0.0	-0.0	176969.96875	-7859.673828125	-3976.775390625
